<?xml version="1.0" encoding="utf-8"?>
<!-- Generator: Adobe Illustrator 15.0.0, SVG Export Plug-In . SVG Version: 6.00 Build 0)  -->
<!DOCTYPE svg PUBLIC "-//W3C//DTD SVG 1.1//EN" "http://www.w3.org/Graphics/SVG/1.1/DTD/svg11.dtd">
<svg version="1.1" id="Layer_1" xmlns="http://www.w3.org/2000/svg" xmlns:xlink="http://www.w3.org/1999/xlink" x="0px" y="0px"
	 width="595.28px" height="841.89px" viewBox="0 0 595.28 841.89" enable-background="new 0 0 595.28 841.89" xml:space="preserve">
<polygon fill="#D1CFCF" points="86,236.89 64,214.39 111.5,167.39 134.5,189.89 134.5,199.89 124.5,199.39 "/>
<polygon fill="#D1CFCF" points="88.5,236.89 125,202.14 138,202.14 140.5,204.89 99.25,248.39 "/>
<polygon fill="#D1CFCF" points="131.5,282.39 99.25,250.39 148,202.14 177.5,202.14 195,218.89 "/>
<polygon fill="#D1CFCF" points="134.5,283.89 195,220.39 217.5,242.265 154.5,304.39 "/>
<polygon fill="#D1CFCF" points="157,304.39 219.5,242.265 240,262.39 176,327.39 "/>
<polygon fill="#D1CFCF" points="178.5,327.39 195,343.89 259,282.39 243,265.89 "/>
<polygon fill="#D1CFCF" points="285,278.89 233,227.39 271,189.89 361,189.89 361,202.14 372,211.89 383.5,212.39 398,197.39 
	405.5,192.39 413,192.89 421.5,202.14 352.5,269.89 363,282.39 343,300.89 319.5,277.39 337.5,258.39 307,258.39 "/>
<polygon fill="#D1CFCF" points="281,293.39 288.5,284.828 297.64,293.39 289.32,300.89 "/>
<polygon fill="#D1CFCF" points="297.64,279.39 305,270.89 315,282.39 306.32,289.89 "/>
<polygon fill="#D1CFCF" points="293,304.89 315,282.39 338.5,304.89 315.75,327.39 "/>
<polygon fill="#D1CFCF" points="519,167.39 497,189.89 481.5,189.89 481.5,198.39 532.5,248.39 567,213.39 "/>
<polygon fill="#D1CFCF" points="530.5,248.39 481.5,198.39 457.5,195.89 520,259.39 "/>
<polygon fill="#D1CFCF" points="519.5,262.39 457.5,195.89 435,217.89 499,282.39 "/>
<polygon fill="#D1CFCF" points="497,282.39 435,220.39 412,242.265 475,304.89 "/>
<polygon fill="#D1CFCF" points="473,304.89 410,242.265 390,262.64 452.5,327.39 "/>
<polygon fill="#D1CFCF" points="450.5,329.89 387.5,265.89 371.5,282.39 435,343.89 "/>
<polygon fill="#D1CFCF" points="511,298.39 528,316.39 551.5,292.859 535,274.89 "/>
<polygon fill="#D1CFCF" points="564,282.39 545.5,265.89 535,274.89 553,292.859 "/>
<polygon fill="#D1CFCF" points="575.5,292.859 564,282.39 528,316.39 540,327.39 "/>
<polygon fill="#D1CFCF" points="580,289.89 541.5,327.39 556,343.89 595.28,304.39 "/>
<polygon fill="#D1CFCF" points="546.5,262.64 575.5,292.859 586,282.39 557.5,251.89 "/>
<polygon fill="#D1CFCF" points="581,227.64 559.5,248.39 588.5,279.375 586,234.89 "/>
<polygon fill="#D1CFCF" points="469,333.39 469,363.39 506,363.39 524.25,358.39 519.5,333.39 "/>
<polygon fill="#D1CFCF" points="75.5,343.89 88.5,329.39 54.5,295.64 41.5,307.39 "/>
<polygon fill="#D1CFCF" points="90.5,327.39 56,292.859 67,282.39 99.25,316.39 "/>
<polygon fill="#D1CFCF" points="103,316.39 77.625,292.859 96.5,274.89 119.5,298.39 "/>
<polygon fill="#D1CFCF" points="68,280.39 77.625,289.89 94.5,274.89 85,265.89 "/>
<polygon fill="#D1CFCF" points="43.5,282.39 56,292.859 83.5,262.64 73,251.89 "/>
<polygon fill="#D1CFCF" points="21,259.39 41.5,280.39 73,251.89 49.5,229.89 "/>
<polygon fill="#D1CFCF" points="13,248.39 18.5,255.14 30,245.39 25,239.14 "/>
<polygon fill="#D1CFCF" points="3,259.39 18,274.89 27.345,265.89 13,251.89 "/>
<polygon fill="#D1CFCF" points="17.5,277.89 24.5,284.828 34,274.89 27.345,268.39 "/>
<polygon fill="#D1CFCF" points="160.5,333.39 160.5,363.39 119.5,363.39 103,357.89 110,333.39 "/>
<polygon fill="#D1CFCF" points="171.5,376.89 198.5,348.39 228.5,376.89 200,406.39 "/>
<polygon fill="#D1CFCF" points="228.5,374.39 203,348.39 212,338.89 238,363.39 "/>
<polygon fill="#D1CFCF" points="240,363.39 213.5,336.39 223.5,327.39 250,353.89 "/>
<polygon fill="#D1CFCF" points="256,356.64 226,327.39 240,311.39 261.5,333.39 259,335.89 266,345.39 "/>
<polygon fill="#D1CFCF" points="266,330.89 242.5,307.39 262.5,289.89 284,310.39 271.091,325.092 "/>
<polygon fill="#D1CFCF" points="284,343.89 284,341.39 269.073,327.39 284,310.39 318.5,343.89 315.75,345.39 306.32,338.89 
	293,351.89 "/>
<polygon fill="#D1CFCF" points="273.5,351.89 284,341.39 269.073,327.39 259,335.89 "/>
<polygon fill="#D1CFCF" points="342,311.39 318.5,333.39 338.5,351.89 346.5,343.89 344.5,339.64 359,327.39 "/>
<polygon fill="#D1CFCF" points="345,310.39 365,331.64 386,311.39 365.5,289.89 "/>
<polygon fill="#D1CFCF" points="345,340.703 356,351.89 369.5,338.89 359,327.39 "/>
<polygon fill="#D1CFCF" points="390,311.39 367.5,331.64 373.5,338.89 365.5,345.39 374,356.64 404.5,327.39 "/>
<polygon fill="#D1CFCF" points="406.5,327.39 379.5,356.64 390,365.89 416,338.89 "/>
<polygon fill="#D1CFCF" points="401,377.39 390,365.89 418,339.64 428,348.39 "/>
<polygon fill="#D1CFCF" points="412,388.89 401,377.39 416,361.279 428,371.89 "/>
<polygon fill="#D1CFCF" points="431.5,348.39 419,361.279 446,388.89 457.5,377.39 "/>
<polygon fill="#D1CFCF" points="414.5,388.89 431.5,406.39 446,391.39 428,374.39 "/>
<polygon fill="#D1CFCF" points="21,396.89 17.5,400.39 47,428.39 98.562,377.39 70.5,348.39 68,351.89 21.5,304.39 3,322.89 "/>
<polygon fill="#D1CFCF" points="6.5,469.39 30,442.89 3,414.39 0,416.39 0,463.39 "/>
<polygon fill="#D1CFCF" points="213.5,420.945 231.75,401.89 246,416.89 228.5,434.89 "/>
<polygon fill="#D1CFCF" points="242.5,390.39 259,406.39 246,416.89 231.75,401.89 "/>
<polygon fill="#D1CFCF" points="254,379.89 281,406.39 271.5,416.89 242.5,390.39 "/>
<polygon fill="#D1CFCF" points="269.073,368.64 275,375.084 272.037,377.39 293,395.89 281,406.39 259,381.89 "/>
<polygon fill="#D1CFCF" points="284,366.39 304,384.89 293,395.89 276,377.39 "/>
<polygon fill="#D1CFCF" points="228.5,434.89 259,406.39 269.073,418.39 242.5,447.39 "/>
<polygon fill="#D1CFCF" points="298,365.89 306.32,374.39 324,374.39 331.5,365.89 336.5,370.14 324.5,383.39 390,448.89 
	344,493.39 327.25,476.39 304,476.39 286.5,493.39 242.5,447.39 304,384.89 293.787,371.89 "/>
<polygon fill="#D1CFCF" points="342.5,366.39 353.5,377.39 338.5,393.39 326.538,381.14 "/>
<polygon fill="#D1CFCF" points="340.02,395.89 357.25,379.89 353.5,375.084 361,368.64 371.5,381.14 349,403.64 "/>
<polygon fill="#D1CFCF" points="376,379.89 347.5,406.39 359,417.89 386,390.39 "/>
<polygon fill="#D1CFCF" points="388,393.39 397.75,401.89 382.5,416.89 373.5,406.39 "/>
<polygon fill="#D1CFCF" points="401,434.89 390,447.39 359,417.89 369.5,407.196 "/>
<polygon fill="#D1CFCF" points="380,421.39 401,401.89 416,420.945 397.75,438.583 "/>
<polygon fill="#D1CFCF" points="570.5,343.89 535,379.89 556.5,401.89 588.5,368.64 586,353.89 582.5,356.64 "/>
<polygon fill="#D1CFCF" points="579.5,346.64 583.5,351.89 592.5,343.89 586,336.39 579.5,341.39 583,343.89 "/>
<polygon fill="#D1CFCF" points="577.5,346.64 579.5,343.89 579.5,341.39 586,334.015 581.75,330.89 571.5,339.64 "/>
<polygon fill="#D1CFCF" points="559.5,401.89 592.5,368.64 592.5,387.515 568.391,414.39 "/>
<polygon fill="#D1CFCF" points="584,427.292 571.5,414.39 592.5,390.39 592.5,416.89 "/>
<path fill="#D1CFCF" d="M304,513.89l-3.5-3l3.5-6.5h14.5l6,9.5v31c0,0-10.5,11-20.5,3l-6-20.292h13.25v-5.708h-4.93L304,513.89z"/>
<path fill="#D1CFCF" d="M450.5,450.39l38.5-41.549c0,0,9-5.549,15.5,0S526,429.64,526,429.64l-48.75,49.25L450.5,450.39z"/>
<polygon fill="#D1CFCF" points="481.5,481.39 526,434.89 535,444.39 488.25,490.89 "/>
<polygon fill="#D1CFCF" points="492,493.39 537.5,447.39 546.5,456.89 501,501.89 "/>
<polygon fill="#D1CFCF" points="503,504.39 549.5,457.39 571.5,478.89 524.25,524.89 "/>
<polygon fill="#D1CFCF" points="526,527.598 571.5,480.89 582,490.89 535,536.39 "/>
<polygon fill="#D1CFCF" points="446,457.39 526,536.39 503,559.39 421.5,478.89 "/>
<polygon fill="#D1CFCF" points="419,480.89 503,562.39 481.5,582.39 401,501.89 "/>
<polygon fill="#D1CFCF" points="397.75,501.89 479,582.39 457.5,606.89 376,524.89 "/>
<polygon fill="#D1CFCF" points="376,534.39 452,610.89 435,628.39 359,550.806 "/>
<polygon fill="#D1CFCF" points="359,554.39 435,629.89 416,646.39 401,628.39 394.5,633.39 353.5,592.39 347.5,596.89 331.5,581.39 
	"/>
<polygon fill="#D1CFCF" points="404.5,635.39 398,630.698 394.5,633.39 355.76,594.65 338.5,608.89 335.5,615.02 338.5,618.39 
	338.5,628.39 353.5,646.39 401,646.39 398,638.39 "/>
<polygon fill="#D1CFCF" points="537.25,536.39 582,490.89 592.5,501.89 546.5,547.39 "/>
<polygon fill="#D1CFCF" points="549.5,547.39 559.5,559.39 592.5,524.89 595.28,501.89 "/>
<polygon fill="#D1CFCF" points="561.75,561.39 568.391,571.89 592.5,547.39 592.5,524.89 "/>
<polygon fill="#D1CFCF" points="294,618.557 291.333,618.557 291.333,630.224 277,646.39 226,646.39 276,594.65 282.333,602.557 
	284.667,600.39 294,609.224 "/>
<polygon fill="#D1CFCF" points="283.333,598.557 276.667,592.89 235,633.224 230,628.39 212.667,646.39 196,630.224 272,554.39 
	300.667,581.39 "/>
<polygon fill="#D1CFCF" points="176.667,620.52 166,630.89 153,617.557 163,606.89 "/>
<polygon fill="#D1CFCF" points="164.833,633.224 150.333,618.89 142.333,626.057 157.333,641.224 "/>
<polygon fill="#D1CFCF" points="168.333,635.224 180,623.557 204.667,648.224 193,659.557 "/>
<polygon fill="#D1CFCF" points="193.667,661.224 204.667,649.224 214.333,657.557 202.667,669.224 "/>
<polygon fill="#D1CFCF" points="193.667,628.39 271,550.806 254,534.39 178.667,611.557 "/>
<polygon fill="#D1CFCF" points="150.334,584.226 172.667,606.89 254.667,524.89 232.334,501.89 "/>
<polygon fill="#D1CFCF" points="149,582.39 229.75,501.89 139.667,409.559 128,409.559 105.334,433.226 156,484.226 104,536.39 "/>
<polygon fill="#D1CFCF" points="140.334,490.89 150.334,480.89 104,434.89 94,444.226 "/>
<polygon fill="#D1CFCF" points="139,493.39 92.667,447.39 82.667,455.559 129.667,501.89 "/>
<polygon fill="#D1CFCF" points="127.334,504.39 81.334,457.39 60.334,478.89 106,524.89 "/>
<polygon fill="#D1CFCF" points="104,526.226 95.667,536.39 49,489.226 58.667,480.89 "/>
<polygon fill="#D1CFCF" points="37.334,501.89 47.667,491.14 93.834,536.39 82.667,547.39 "/>
<polygon fill="#D1CFCF" points="26,512.226 35.334,501.89 82.667,549.226 72,559.39 "/>
<polygon fill="#D1CFCF" points="26,514.559 72,559.39 60.334,571.226 15,524.89 "/>
<polygon fill="#D1CFCF" points="43.5,600.39 98.562,544.226 115.334,559.39 96,579.226 124.667,609.559 88,646.39 "/>
<polygon fill="#D1CFCF" points="19.667,578.226 39.333,559.39 60.334,580.226 40,600.39 "/>
<polygon fill="#D1CFCF" points="8,566.559 19.667,576.559 37.334,559.39 26,548.892 "/>
<polygon fill="#D1CFCF" points="1.333,547.39 1.333,559.39 8,566.559 26,547.39 13.667,536.39 "/>
</svg>
